<?xml version="1.0" encoding="utf-8"?>
<!-- Generator: Adobe Illustrator 23.0.3, SVG Export Plug-In . SVG Version: 6.00 Build 0)  -->
<svg version="1.1" id="Capa_1" xmlns="http://www.w3.org/2000/svg" xmlns:xlink="http://www.w3.org/1999/xlink" x="0px" y="0px"
	 viewBox="0 0 69.2 69.2" style="enable-background:new 0 0 69.2 69.2;" xml:space="preserve">
<style type="text/css">
	.st0{opacity:0.1;}
	.st1{fill:#969696;}
	.st2{fill:#8C8C8C;}
	.st3{fill:#A8A8A8;}
</style>
<g class="st0">
	<path d="M35.4,42.5l-6.1-6.1l-0.5-0.5l0.4-0.6L36.4,25l-4.7-9.6c-1.9-2.1-8.3-8.3-17.5-4.4C4.8,14.9,0.8,26,4.9,34.6
		C8.4,42,15.9,51.7,31.3,62l0.1-0.3l0,0L35.4,42.5z"/>
	<path d="M53.1,10.5c-7.5-3-13.6,0.9-16.5,3.6L41,24.7l0.3,0.7L40.8,26l-8,9.8L38,42l0.2,0.2l-0.1,0.3L32.5,62
		c16-10.8,24.2-20.6,28.2-28.1C65.4,25.1,62.2,14.2,53.1,10.5z"/>
	<polygon points="36.3,9.8 34.7,13.3 38,10.5 	"/>
	<polygon points="33.4,66.1 34.1,64.8 32.7,63.3 	"/>
	<polygon points="34.9,7.4 33.4,7.2 33.2,9.7 34.4,10.4 	"/>
	<polygon points="33.3,12.7 32.2,13.1 32.8,14 	"/>
</g>
<g>
	<g>
		<g>
			<path class="st1" d="M36.7,41.2l-6.4-6l-0.5-0.5l0.4-0.6L36.8,24l-5.2-9.3c-2-2.1-8.8-8.1-17.9-4.3C4.5,14.3,1,25.1,5.6,33.6
				c3.9,7.3,12,16.7,27.9,26.8L36.7,41.2z"/>
		</g>
		<g>
			<path class="st2" d="M33.6,60.1c-12-10.2-18.6-19.6-22-27c-3.5-7.6-2.4-16.7,2.3-22.7h-0.1C4.5,14.3,1,25.1,5.6,33.6
				c3.9,7.3,12,16.7,27.9,26.8L33.6,60.1z"/>
		</g>
	</g>
	<path class="st1" d="M53,9.9c-7.7-2.9-13.6,0.9-16.5,3.5l4.9,10.4l0.3,0.7L41.3,25l-7.5,9.6l5.6,6.2l0.2,0.2l-0.1,0.3l-4.8,19.1
		c15.6-10.6,23.4-20.2,27.1-27.6C66.1,24.2,62.4,13.5,53,9.9z"/>
	<polygon class="st3" points="34.6,12.7 36,9.2 37.8,9.9 	"/>
	<polygon class="st3" points="35,61.6 36.5,63.1 35.8,64.4 	"/>
	<polygon class="st3" points="32.9,9.2 34.1,9.8 34.5,6.9 33,6.7 	"/>
	<polygon class="st3" points="32,12.5 32.7,13.4 33.1,12.1 	"/>
</g>
</svg>
