<svg xmlns="http://www.w3.org/2000/svg" viewBox="0 0 30.02 44.02"><defs><style>.cls-1{fill:#fff;}</style></defs><title>location-pin</title><g id="Layer_2" data-name="Layer 2"><g id="Layer_1-2" data-name="Layer 1"><path class="cls-1" d="M15,44l-1.17-1.53A100.82,100.82,0,0,1,2.44,24.08a24.49,24.49,0,0,1-2.36-7.7A14.46,14.46,0,0,1,3.81,5,14.32,14.32,0,0,1,12.45.21,15,15,0,0,1,29.87,12.82a17.49,17.49,0,0,1-1.4,9.07A63.76,63.76,0,0,1,22.1,34c-2.18,3.25-4.49,6.42-6.75,9.62-.09.13-.19.25-.35.45m5.85-29A5.85,5.85,0,1,0,15,20.86a5.89,5.89,0,0,0,5.87-5.8"/></g></g></svg>