<svg xmlns="http://www.w3.org/2000/svg" viewBox="0 0 295.07 101.07"><defs><style>.cls-1{fill:#fff;}</style></defs><title>logo-zazah</title><g id="Layer_2" data-name="Layer 2"><g id="Layer_1-2" data-name="Layer 1"><path class="cls-1" d="M57.38,56.44A1.42,1.42,0,0,1,59,58v3.1a1.56,1.56,0,0,1-.46,1.13,1.55,1.55,0,0,1-1.14.46H34.74a2.6,2.6,0,0,1-1.34-.38,3.41,3.41,0,0,1-1.1-1l-1.17-1.68a2.51,2.51,0,0,1-.46-1.34A3.39,3.39,0,0,1,30.88,57L50.59,7.71a1,1,0,0,0,0-1,1.11,1.11,0,0,0-1-.42H31.63A1.41,1.41,0,0,1,30,4.7V1.59A1.41,1.41,0,0,1,31.63,0H54.28a2.63,2.63,0,0,1,1.34.38,3.27,3.27,0,0,1,1.09,1L57.89,3a2.6,2.6,0,0,1,.46,1.34,3.41,3.41,0,0,1-.21,1.43L38.43,54.94a1.1,1.1,0,0,0,0,1.08,1.09,1.09,0,0,0,1,.42Z"/><path class="cls-1" d="M106,0a3.42,3.42,0,0,1,1.43.34,5.38,5.38,0,0,1,1.26.75l.92.92a3.94,3.94,0,0,1,.76,1.22,3.86,3.86,0,0,1,.33,1.47V61.31a1.41,1.41,0,0,1-1.59,1.59H106a1.57,1.57,0,0,1-1.59-1.59V41.77a1.41,1.41,0,0,0-1.59-1.6H89.67a1.41,1.41,0,0,0-1.59,1.6V61.31a1.58,1.58,0,0,1-.46,1.13,1.55,1.55,0,0,1-1.14.46h-3.1a1.41,1.41,0,0,1-1.59-1.59V4.7a3.86,3.86,0,0,1,.33-1.47A3.76,3.76,0,0,1,82.88,2l.92-.92A5.38,5.38,0,0,1,85.06.34,3.42,3.42,0,0,1,86.48,0Zm-3.18,33.88a1.54,1.54,0,0,0,1.13-.46,1.52,1.52,0,0,0,.46-1.13V7.88a1.41,1.41,0,0,0-1.59-1.59H89.67a1.41,1.41,0,0,0-1.59,1.59V32.29a1.52,1.52,0,0,0,.46,1.13,1.51,1.51,0,0,0,1.13.46Z"/><path class="cls-1" d="M159.2,56.44a1.41,1.41,0,0,1,1.59,1.6v3.1a1.56,1.56,0,0,1-.46,1.13,1.54,1.54,0,0,1-1.13.46H136.55a2.66,2.66,0,0,1-1.34-.38,3.27,3.27,0,0,1-1.09-1L133,59.71a2.52,2.52,0,0,1-.47-1.34,3.74,3.74,0,0,1,.21-1.42L152.4,7.71a1,1,0,0,0,0-1,1.09,1.09,0,0,0-1-.42h-18a1.41,1.41,0,0,1-1.6-1.59V1.59A1.41,1.41,0,0,1,133.45,0h22.64a2.6,2.6,0,0,1,1.34.38,3.27,3.27,0,0,1,1.09,1L159.7,3a2.51,2.51,0,0,1,.46,1.34A3.41,3.41,0,0,1,160,5.79L140.24,54.94a1.12,1.12,0,0,0,0,1.08,1.11,1.11,0,0,0,1,.42Z"/><path class="cls-1" d="M207.84,0a3.42,3.42,0,0,1,1.42.34,5,5,0,0,1,1.26.75l.92.92a3.76,3.76,0,0,1,.76,1.22,3.89,3.89,0,0,1,.34,1.47V61.31a1.41,1.41,0,0,1-1.6,1.59h-3.1a1.51,1.51,0,0,1-1.13-.46,1.54,1.54,0,0,1-.46-1.13V41.77a1.41,1.41,0,0,0-1.6-1.6H191.49a1.41,1.41,0,0,0-1.6,1.6V61.31a1.57,1.57,0,0,1-1.59,1.59h-3.11a1.41,1.41,0,0,1-1.59-1.59V4.7a3.71,3.71,0,0,1,.34-1.47A3.76,3.76,0,0,1,184.69,2l.92-.92a5.38,5.38,0,0,1,1.26-.75A3.46,3.46,0,0,1,188.3,0Zm-3.19,33.88a1.51,1.51,0,0,0,1.13-.46,1.53,1.53,0,0,0,.47-1.13V7.88a1.41,1.41,0,0,0-1.6-1.59H191.49a1.41,1.41,0,0,0-1.6,1.59V32.29a1.52,1.52,0,0,0,.46,1.13,1.55,1.55,0,0,0,1.14.46Z"/><path class="cls-1" d="M243.23,40.09a1.51,1.51,0,0,0-1.13.46,1.54,1.54,0,0,0-.46,1.13V61.31a1.55,1.55,0,0,1-.47,1.13,1.52,1.52,0,0,1-1.13.46h-3.1a1.41,1.41,0,0,1-1.59-1.59V1.59A1.41,1.41,0,0,1,236.94,0H240a1.52,1.52,0,0,1,1.13.46,1.53,1.53,0,0,1,.47,1.13V32.21a1.52,1.52,0,0,0,.46,1.13,1.51,1.51,0,0,0,1.13.46H256.4a1.54,1.54,0,0,0,1.13-.46,1.52,1.52,0,0,0,.46-1.13V1.59a1.52,1.52,0,0,1,.46-1.13A1.54,1.54,0,0,1,259.58,0h3.11a1.41,1.41,0,0,1,1.59,1.59V61.31a1.41,1.41,0,0,1-1.59,1.59h-3.11A1.57,1.57,0,0,1,258,61.31V41.68a1.57,1.57,0,0,0-1.59-1.59Z"/><path class="cls-1" d="M295.07,32.28a3.83,3.83,0,1,1-3.82-3.83,3.82,3.82,0,0,1,3.82,3.83"/><path class="cls-1" d="M7.65,32.28a3.83,3.83,0,1,1-3.82-3.83,3.82,3.82,0,0,1,3.82,3.83"/><path class="cls-1" d="M89.63,98c-.44,2.08-1.63,3.1-3.6,3.1-2.79,0-4.24-1.65-4.24-5.18V87.2c0-3.5,1.74-5.29,4.82-5.29,2.79,0,4.39,1.58,4.39,4.39v2.27H89.21V86.33c0-1.79-.79-2.84-2.66-2.84-2,0-3,1.26-3,3.79v8.5c0,2.53.92,3.66,2.9,3.66s2.84-1.55,2.84-3.74V92.86h-3V91.31H91v9.53H89.92Z"/><path class="cls-1" d="M98,95.89V87.2c0-3.42,1.71-5.27,4.68-5.27s4.69,1.82,4.69,5.27v8.69c0,3.55-1.71,5.18-4.71,5.18S98,99.44,98,95.89Zm7.58-.11V87.25c0-2.42-.9-3.76-2.92-3.76s-2.87,1.37-2.87,3.76v8.53c0,2.45.89,3.66,2.89,3.66S105.59,98.23,105.59,95.78Z"/><path class="cls-1" d="M114.36,95.89V87.2c0-3.42,1.71-5.27,4.68-5.27s4.69,1.82,4.69,5.27v8.69c0,3.55-1.71,5.18-4.71,5.18S114.36,99.44,114.36,95.89Zm7.58-.11V87.25c0-2.42-.9-3.76-2.92-3.76s-2.87,1.37-2.87,3.76v8.53c0,2.45.89,3.66,2.89,3.66S121.94,98.23,121.94,95.78Z"/><path class="cls-1" d="M130.92,82.12h3.73c3.09,0,5.19,1.52,5.19,5.21v8.29c0,3.66-2.08,5.22-5.19,5.22h-3.73Zm1.73,1.52V99.28h2c2.1,0,3.39-1.15,3.39-3.79V87.41c0-2.66-1.31-3.77-3.44-3.77Z"/><path class="cls-1" d="M159.48,100.84,155.4,82.12h1.77l2.89,13.95.29,3,.32-3,2.89-13.95h1.79l-4.13,18.72Z"/><path class="cls-1" d="M171.25,100.84V99.2h2.27V83.7h-2.27V82.12h6.24V83.7H175.2V99.2h2.29v1.64Z"/><path class="cls-1" d="M191.76,100.84h-7.61V82.12h7.43v1.6h-5.72v6.72h5v1.63h-5V99.2h5.9Z"/><path class="cls-1" d="M202,100.84H200.4l-2.58-18.72h1.66l1.79,13.61.08,3,.29-2.74,2.89-13.82h1.19l2.71,13.82.23,3,.19-3.18,2-13.61h1.66l-3,18.72H208l-2.74-14.11-.16-2.37-.18,2.39Z"/></g></g></svg>