<svg xmlns="http://www.w3.org/2000/svg" viewBox="0 0 27.36 27.36"><defs><style>.cls-1{fill:#fff;}</style></defs><title>Asset 1</title><g id="Layer_2" data-name="Layer 2"><g id="Layer_1-2" data-name="Layer 1"><path class="cls-1" d="M26.75,21a1.5,1.5,0,0,1,.14,2.29l-3,3c-3,3-12.12-.5-17.21-5.59S-1.88,6.44,1.1,3.45l3-3A1.49,1.49,0,0,1,6.37.6L10,5.2A2,2,0,0,1,9.8,7.78l-2,2a2.32,2.32,0,0,0-.35,2.71,17.91,17.91,0,0,0,3.21,4.2,17.67,17.67,0,0,0,4.2,3.2,2.35,2.35,0,0,0,2.71-.34l2-2a2,2,0,0,1,2.58-.16L26.75,21Z"/></g></g></svg>